<svg width="514" height="442" viewBox="0 0 514 442" fill="none" xmlns="http://www.w3.org/2000/svg">
<path fill-rule="evenodd" clip-rule="evenodd" d="M160.713 27.7668C160.712 27.7673 160.702 27.7512 160.678 27.7199L141.588 42.265C137.442 36.8238 136.237 30.3262 136.595 24.7486C136.952 19.1695 138.923 13.3841 142.592 8.74045C146.368 3.96168 152.41 -0.0541663 160.217 0.000552683C167.789 0.0536313 174.536 3.92498 180.118 9.50716C183.224 12.6132 184.197 16.4701 184.589 18.4148C185.067 20.7864 185.226 23.334 185.243 25.7729C185.277 30.698 184.73 36.833 183.797 43.7028C183.057 49.1499 182.041 55.2894 180.779 61.9942C258.207 25.1789 353.681 8.48611 452.711 30.2727L447.554 53.7122C346.961 31.5817 250.119 51.6064 174.354 92.1068C174.01 93.5725 173.66 95.0515 173.303 96.5428C167.648 120.177 160.233 147.243 151.67 174.816C186.82 163.15 228.018 153.81 268.208 146.844C312.684 139.135 356.367 134.258 389.952 132.395C406.706 131.466 421.213 131.272 432.159 131.904C437.591 132.218 442.517 132.755 446.547 133.627C448.555 134.062 450.67 134.649 452.648 135.495C454.431 136.258 457.223 137.695 459.439 140.417L440.826 155.568C441.557 156.466 442.257 156.984 442.62 157.225C442.817 157.355 442.97 157.441 443.062 157.489C443.109 157.514 443.146 157.532 443.169 157.543C443.192 157.554 443.205 157.559 443.206 157.56C443.206 157.56 443.169 157.544 443.088 157.515C443.05 157.502 443.005 157.486 442.952 157.469C442.892 157.449 442.822 157.427 442.741 157.403C442.433 157.311 442.015 157.202 441.47 157.084C439.181 156.588 435.649 156.146 430.774 155.864C421.107 155.305 407.606 155.453 391.281 156.358C358.711 158.165 315.956 162.925 272.307 170.491C228.604 178.066 184.445 188.378 148.897 201.163C146.682 201.959 144.505 202.763 142.37 203.575C138.596 214.781 134.668 225.903 130.627 236.746C113.422 282.907 93.4531 326.007 73.6773 347.981C64.3021 358.398 50.9064 368.499 35.5366 363.843C28.1614 361.609 22.3635 356.415 17.8272 350.002C13.2969 343.598 9.49269 335.253 6.22217 325.207C-6.17306 287.136 0.620552 245.759 20.5686 206.846C40.5172 167.933 73.936 130.749 116.382 100.047C128.018 91.6313 140.364 83.6795 153.339 76.2956C156.446 62.2194 158.718 50.0174 160.015 40.4715C160.887 34.0592 161.266 29.2093 161.243 25.9388C161.24 25.5015 161.23 25.1202 161.216 24.7909C161.109 24.7132 161.008 24.6428 160.913 24.5789C160.906 24.599 160.898 24.6193 160.89 24.64C160.703 25.1529 160.582 25.724 160.546 26.2832C160.479 27.3288 160.718 27.764 160.713 27.7668ZM161.071 23.2042C161.006 22.982 161.019 22.9401 161.062 23.1571C161.065 23.1712 161.068 23.1869 161.071 23.2042ZM159.767 23.9786C159.753 23.976 159.746 23.9741 159.746 23.9738C159.746 23.9735 159.753 23.9749 159.767 23.9786ZM145.413 109.217C140.297 112.551 135.306 115.979 130.448 119.494C90.4463 148.427 59.8289 182.872 41.9257 217.795C24.0219 252.72 19.1481 287.386 29.0431 317.777C31.8976 326.545 34.7887 332.422 37.4205 336.142C40.0463 339.854 41.8773 340.687 42.4943 340.874C43.1089 341.06 47.1507 341.579 55.8379 331.926C72.1872 313.759 90.8433 274.766 108.138 228.364C109.543 224.596 110.934 220.792 112.309 216.961C109.354 218.534 106.556 220.126 103.924 221.738C91.8503 229.131 84.2724 236.322 80.5953 242.869L59.6698 231.116C66.2428 219.413 77.7899 209.598 91.3918 201.27C100.675 195.585 111.392 190.308 123.107 185.416C131.642 159.284 139.262 133.013 145.413 109.217Z" fill="#CDBD7E"/>
<path fill-rule="evenodd" clip-rule="evenodd" d="M492.969 317.289C493.849 342.72 498.47 364.944 508.204 379.967C509.25 381.583 510.169 383.096 510.903 384.468C511.525 385.629 512.446 387.465 512.945 389.516C513.166 390.424 513.656 392.709 513.063 395.472C512.295 399.052 509.679 403.063 504.805 404.645C501.17 405.825 498.112 404.981 497.078 404.663C495.726 404.247 494.639 403.685 493.964 403.304C491.511 401.921 488.824 399.642 486.498 397.537C483.913 395.199 480.857 392.218 477.47 388.752C463.956 374.922 443.859 352.003 424.591 326.944C423.53 325.565 422.47 324.176 421.412 322.78C415.075 329.663 408.617 336.524 402.118 343.274C376.291 370.1 349.559 395.449 327.077 413.466C315.883 422.437 305.377 429.888 296.334 434.773C291.825 437.208 287.279 439.226 282.917 440.385C278.755 441.491 273.373 442.19 268.074 440.285L276.191 417.7C275.578 417.479 275.211 417.475 275.211 417.474C275.211 417.474 275.67 417.478 276.756 417.189C278.614 416.696 281.318 415.606 284.928 413.656C292.124 409.77 301.337 403.338 312.068 394.738C333.437 377.613 359.375 353.067 384.828 326.629C392.319 318.848 399.746 310.927 406.977 303.012C401.367 295.009 396.017 286.947 391.162 279.037C390.334 280.622 389.494 282.208 388.644 283.792C376.038 307.28 360.484 331.63 345.638 350.279C338.24 359.572 330.754 367.785 323.662 373.793C320.113 376.799 316.41 379.472 312.641 381.44C308.96 383.362 304.495 384.993 299.633 384.993C287.054 384.993 274.457 378.808 263.653 371.069C252.55 363.116 241.824 352.433 232.708 341.062C227.912 335.08 223.465 328.787 219.584 322.448C218.107 322.919 216.633 323.39 215.164 323.86C200.481 328.556 186.29 333.171 173.781 337.642C170.782 344.5 167.493 350.785 163.911 356.111C159.313 362.949 153.37 369.527 145.722 372.946C137.149 376.779 127.953 375.958 119.619 370.571C115.875 368.151 111.541 364.246 110.048 358.22C108.446 351.757 110.901 346.264 113.593 342.654C116.192 339.168 119.756 336.332 123.237 334.025C126.845 331.634 131.083 329.347 135.66 327.159C141.425 324.402 148.142 321.611 155.488 318.81C158.099 311.746 160.533 303.949 162.73 295.759C167.847 276.683 171.368 256.667 172.903 241.314C173.642 233.93 173.884 227.981 173.711 223.882C173.636 223.697 173.553 223.51 173.462 223.321C171.946 220.187 169.267 218.782 167.543 218.351L161.722 241.634C157.999 240.703 154.038 238.283 151.856 233.771C149.892 229.711 150.26 225.758 150.854 223.249C152.012 218.362 155.097 214.145 157.961 211.196C161.025 208.04 165.123 205.002 169.897 203.136C174.7 201.259 181.03 200.284 187.505 202.818C191.068 204.212 193.153 206.749 194.245 208.48C195.357 210.24 195.991 212.02 196.379 213.382C197.156 216.111 197.495 219.162 197.649 222.021C197.965 227.885 197.612 235.42 196.784 243.702C195.116 260.381 191.356 281.677 185.91 301.977C185.305 304.233 184.675 306.491 184.021 308.744C191.837 306.142 199.867 303.555 207.852 301.001C208.151 300.905 208.45 300.81 208.748 300.714C204.999 290.701 202.826 279.711 205.61 270.141C208.827 259.083 217.303 251.429 226.445 246.543C235.671 241.611 246.772 238.796 257.861 237.849C279.229 236.023 305.468 240.891 320.141 257.565C324.108 262.073 325.723 268.198 323.549 274.373C321.818 279.29 318.153 282.792 315.261 285.079C309.236 289.842 300.137 294.221 290.298 298.259C277.197 303.634 260.612 309.245 243.229 314.875C245.734 318.62 248.486 322.374 251.433 326.049C259.503 336.115 268.684 345.151 277.628 351.558C286.797 358.125 294.34 360.948 299.509 360.992C299.606 360.97 300.247 360.837 301.532 360.166C303.226 359.281 305.44 357.776 308.148 355.481C313.57 350.888 319.955 344.007 326.861 335.331C340.625 318.043 355.414 294.956 367.497 272.443C371 265.915 374.222 259.535 377.098 253.442C376.675 252.549 376.264 251.662 375.865 250.781C370.625 239.227 366.791 227.444 366.788 217.008C366.786 211.629 367.799 206 370.727 200.906C373.749 195.647 378.339 191.79 384.003 189.422C388.295 187.627 393.112 186.303 397.996 186.674C403.449 187.088 408.487 189.62 411.848 194.365C414.826 198.57 415.696 203.402 415.873 207.33C416.057 211.405 415.549 215.758 414.693 220.076C412.85 229.373 408.93 240.68 403.705 252.832C409.128 262.847 415.902 273.639 423.433 284.625C434.502 271.992 444.799 259.669 453.776 248.272C463.211 236.292 471.075 225.478 476.822 216.489C478.299 214.18 479.588 212.063 480.703 210.138C483.053 199.862 485.317 191.656 487.016 186.496C487.728 184.334 488.577 181.967 489.499 180.204C489.743 179.737 490.201 178.902 490.881 178.013C491.221 177.568 491.823 176.836 492.698 176.082C493.471 175.416 495.221 174.062 497.878 173.436C501.07 172.684 504.687 173.219 507.699 175.376C510.223 177.185 511.36 179.448 511.821 180.536C512.704 182.619 512.798 184.488 512.823 184.996L512.824 185.013C512.942 187.336 512.474 190.226 512.078 192.452C511.594 195.172 510.851 198.736 509.827 203.185C508.754 207.846 506.419 213.183 503.347 218.834C501.787 225.918 500.187 234.01 498.718 242.786C494.921 265.478 492.1 292.17 492.969 317.289ZM471.412 264.663C461.44 277.253 450.01 290.824 437.792 304.635C439.715 307.206 441.659 309.769 443.617 312.315C453.107 324.658 462.781 336.434 471.678 346.751C470.147 337.368 469.315 327.711 468.984 318.118C468.365 300.23 469.466 281.856 471.412 264.663ZM390.788 217.116C390.92 216.534 391.041 215.965 391.151 215.409C391.343 214.437 391.494 213.55 391.608 212.745C391.581 212.787 391.557 212.827 391.535 212.864C391.259 213.345 390.787 214.535 390.788 217C390.788 217.039 390.788 217.077 390.788 217.116ZM391.771 207.318C391.771 207.318 391.772 207.323 391.775 207.333C391.772 207.323 391.771 207.318 391.771 207.318ZM231.645 293.394C250.368 287.367 267.797 281.549 281.187 276.055C287.887 273.306 292.991 270.864 296.548 268.791C287.92 263.374 274.347 260.528 259.904 261.762C251.244 262.502 243.47 264.656 237.758 267.709C231.963 270.806 229.438 274.152 228.655 276.845C227.947 279.279 228.26 284.773 231.645 293.394ZM179.342 225.289C179.342 225.29 179.328 225.292 179.302 225.292C179.329 225.288 179.342 225.288 179.342 225.289ZM173.302 219.975C173.292 219.942 173.291 219.936 173.298 219.959C173.299 219.964 173.3 219.97 173.302 219.975ZM132.073 349.994C132.075 349.993 132.099 350.013 132.14 350.055C132.091 350.015 132.071 349.994 132.073 349.994ZM489.935 396.169C489.951 396.203 489.958 396.219 489.957 396.22C489.957 396.22 489.949 396.203 489.935 396.169Z" fill="#CDBD7E"/>
</svg>
