<svg width="1075" height="543" viewBox="0 0 1075 543" fill="none" xmlns="http://www.w3.org/2000/svg">
<path d="M11.1094 239.95C76.6094 115.846 583.109 102.95 422.11 12.95C345.059 -30.122 344.61 292.45 347.11 329.95C349.61 367.45 389.331 119.95 364.11 102.95C338.888 85.95 66.1094 518.45 11.1094 475.846C-30.2213 443.831 549.109 52.45 583.109 102.95C617.109 153.45 303.11 280.45 305.11 319.45C307.11 358.45 413.11 282.45 440.61 312.95C468.11 343.45 297.38 541.072 206.546 526.846C105.046 510.95 628.443 260.18 906.109 139.846C853.609 69.3462 618.433 335.925 596.549 287.925M596.549 287.925C584.58 261.672 637.608 20.8462 623.108 20.8462C608.608 20.8462 593.736 553.95 541.172 532.45C488.608 510.95 548.549 284.425 596.549 287.925ZM596.549 287.925C644.549 291.425 859.108 594.346 917.108 510.95M811.609 181.604C811.609 319.604 692.508 554.446 664.108 526.846C628.608 492.346 956.608 101.346 1025.11 173.346C1093.61 245.346 820.308 389.346 770.308 346.846C720.308 304.346 1031.61 612.846 1065.61 496.346" stroke="#B0AB70" stroke-width="18"/>
</svg>
